<mxfile host="app.diagrams.net" modified="2024-03-05T09:58:19.782Z" agent="Mozilla/5.0 (Windows NT 10.0; Win64; x64) AppleWebKit/537.36 (KHTML, like Gecko) Chrome/122.0.0.0 Safari/537.36" version="24.0.1" etag="EH9O6yfhRC6yWkI6Fjxx" type="github">
  <diagram name="第 1 页" id="d9XC8Bb1I-ZFEwoemsGz">
    <mxGraphModel>
      <root>
        <mxCell id="0" />
        <mxCell id="1" parent="0" />
      </root>
    </mxGraphModel>
  </diagram>
</mxfile>
